<svg width="98" height="98" viewBox="0 0 98 98" fill="none" xmlns="http://www.w3.org/2000/svg">
<g opacity="0.6" filter="url(#filter0_f_2_695)">
<ellipse cx="49" cy="48.9999" rx="16" ry="16" transform="rotate(24.9407 49 48.9999)" fill="#F77808"/>
</g>
<g filter="url(#filter1_f_2_695)">
<ellipse cx="49.0005" cy="49" rx="16" ry="16" transform="rotate(-16 49.0005 49)" fill="#190C01"/>
<ellipse cx="49.0005" cy="49" rx="16" ry="16" transform="rotate(-16 49.0005 49)" fill="url(#paint0_radial_2_695)"/>
<path d="M63.9 44.7276C66.2596 52.9564 61.5017 61.5399 53.2729 63.8995C45.0441 66.2591 36.4605 61.5011 34.1009 53.2723C31.7413 45.0435 36.4993 36.46 44.7281 34.1004C52.9569 31.7408 61.5405 36.4988 63.9 44.7276Z" stroke="url(#paint1_linear_2_695)" stroke-opacity="0.75"/>
</g>
<defs>
<filter id="filter0_f_2_695" x="0.996216" y="0.996094" width="96.0076" height="96.0076" filterUnits="userSpaceOnUse" color-interpolation-filters="sRGB">
<feFlood flood-opacity="0" result="BackgroundImageFix"/>
<feBlend mode="normal" in="SourceGraphic" in2="BackgroundImageFix" result="shape"/>
<feGaussianBlur stdDeviation="16" result="effect1_foregroundBlur_2_695"/>
</filter>
<filter id="filter1_f_2_695" x="32.2463" y="32.2458" width="33.5083" height="33.5082" filterUnits="userSpaceOnUse" color-interpolation-filters="sRGB">
<feFlood flood-opacity="0" result="BackgroundImageFix"/>
<feBlend mode="normal" in="SourceGraphic" in2="BackgroundImageFix" result="shape"/>
<feGaussianBlur stdDeviation="0.375" result="effect1_foregroundBlur_2_695"/>
</filter>
<radialGradient id="paint0_radial_2_695" cx="0" cy="0" r="1" gradientUnits="userSpaceOnUse" gradientTransform="translate(38.8473 35.3409) rotate(51.3236) scale(36.1331 29.5881)">
<stop stop-color="#F77808"/>
<stop offset="1" stop-opacity="0"/>
</radialGradient>
<linearGradient id="paint1_linear_2_695" x1="32.4239" y1="38.6686" x2="59.018" y2="62.211" gradientUnits="userSpaceOnUse">
<stop stop-color="#F77808"/>
<stop offset="0.777199" stop-color="#190C01" stop-opacity="0"/>
</linearGradient>
</defs>
</svg>
