<svg width="24" height="25" viewBox="0 0 24 25" fill="none" xmlns="http://www.w3.org/2000/svg">
<mask id="mask0_121_3323" style="mask-type:alpha" maskUnits="userSpaceOnUse" x="0" y="0" width="24" height="25">
<rect y="0.5" width="24" height="24" fill="white"/>
</mask>
<g mask="url(#mask0_121_3323)">
<path fill-rule="evenodd" clip-rule="evenodd" d="M2 12.5C2 6.97715 6.47715 2.5 12 2.5C17.5228 2.5 22 6.97715 22 12.5C21.9939 18.0203 17.5203 22.4939 12 22.5C6.47715 22.5 2 18.0228 2 12.5ZM7.115 19.055C9.39805 20.7653 12.4093 21.1571 15.054 20.088C14.6749 18.0493 14.113 16.0489 13.375 14.111C11.6799 14.702 10.1302 15.6473 8.829 16.884C8.18773 17.4912 7.63257 18.1833 7.179 18.941L7.172 18.952V18.942L7.154 18.977L7.142 18.997L7.135 19.01L7.118 19.046L7.12 19.045L7.115 19.055ZM15.307 13.645C15.9442 15.4255 16.4456 17.2517 16.807 19.108C18.5064 17.883 19.6615 16.0438 20.027 13.981C18.969 13.6891 17.8765 13.5414 16.779 13.542V13.545C16.2867 13.5457 15.7949 13.5791 15.307 13.645ZM3.817 12.511C3.81882 14.4376 4.50052 16.3017 5.742 17.775C7.35028 15.2905 9.72927 13.4023 12.514 12.4L12.633 12.366C12.456 11.975 12.29 11.626 12.124 11.3C9.45593 12.0481 6.6999 12.4365 3.929 12.455H3.817V12.511ZM20.166 12.187C20.1024 10.4954 19.5107 8.8662 18.474 7.528C17.2642 8.88093 15.7585 9.93634 14.074 10.612L14.103 10.6L14.072 10.613C14.251 10.986 14.408 11.335 14.539 11.646C14.57 11.72 14.596 11.784 14.62 11.846L14.661 11.946C15.2603 11.8795 15.863 11.8471 16.466 11.849C17.7068 11.8536 18.9449 11.9667 20.166 12.187ZM4.047 10.591C6.37738 10.555 8.69657 10.2605 10.962 9.713H10.975H10.99L11 9.7L11.054 9.687H11.06L11.1 9.679H11.109H11.116L11.137 9.673L11.177 9.663L11.2 9.653L11.222 9.647H11.232H11.242C9.909 7.3 8.529 5.387 8.376 5.177H8.377C6.20231 6.25037 4.61618 8.23358 4.047 10.591ZM10.369 4.494C11.4166 5.94558 12.3779 7.45753 13.248 9.022C14.8061 8.46705 16.1958 7.52157 17.284 6.276C15.8067 5.0266 13.9348 4.34041 12 4.33897C11.4526 4.33762 10.9063 4.38953 10.369 4.494Z" fill="white"/>
</g>
</svg>
