<svg width="24" height="25" viewBox="0 0 24 25" fill="none" xmlns="http://www.w3.org/2000/svg">
<mask id="mask0_121_3313" style="mask-type:alpha" maskUnits="userSpaceOnUse" x="0" y="0" width="24" height="25">
<rect y="0.5" width="24" height="24" fill="white"/>
</mask>
<g mask="url(#mask0_121_3313)">
<path fill-rule="evenodd" clip-rule="evenodd" d="M15.769 18.431C15.2256 18.2197 14.7346 17.8928 14.33 17.473C13.9314 17.044 13.6236 16.5389 13.425 15.988C13.2069 15.3786 13.0989 14.7352 13.106 14.088C13.1014 13.4519 13.2125 12.8203 13.434 12.224C13.6405 11.668 13.9583 11.1599 14.368 10.731C14.7788 10.3074 15.2696 9.96955 15.812 9.73701C16.3995 9.48849 17.0322 9.36488 17.67 9.37401C18.3555 9.35936 19.0343 9.5103 19.649 9.81401C20.1977 10.0954 20.6735 10.5004 21.039 10.997C21.4077 11.5043 21.6737 12.0787 21.822 12.688C21.9838 13.3357 22.0416 14.0051 21.993 14.671H15.562C15.5364 15.3035 15.7532 15.9219 16.168 16.4C16.6038 16.7823 17.1736 16.9758 17.752 16.938C18.2063 16.9486 18.6527 16.8183 19.03 16.565C19.3295 16.3822 19.5594 16.1044 19.683 15.776H21.838C21.5938 16.7047 21.0319 17.5185 20.25 18.076C19.4761 18.5547 18.5786 18.7953 17.669 18.768C17.0201 18.7761 16.3755 18.6617 15.769 18.431ZM16.626 11.424C16.3884 11.5438 16.1775 11.7105 16.006 11.914C15.8551 12.0989 15.7435 12.3126 15.678 12.542C15.6203 12.7332 15.583 12.93 15.567 13.129H19.549C19.5203 12.6104 19.3226 12.1156 18.986 11.72C18.6135 11.3684 18.111 11.1885 17.6 11.224C17.264 11.2114 16.9299 11.28 16.626 11.424ZM2 18.536V6.23101H7.8C8.3373 6.2263 8.8736 6.27826 9.4 6.38601C9.84587 6.47305 10.2707 6.64556 10.651 6.89401C10.9945 7.13244 11.2702 7.456 11.451 7.83301C11.6507 8.28714 11.7463 8.78015 11.731 9.27601C11.7527 9.82461 11.6073 10.3669 11.314 10.831C10.9931 11.2741 10.5594 11.6232 10.058 11.842C10.7393 12.0123 11.3382 12.4187 11.748 12.989C12.1287 13.5758 12.3213 14.2648 12.3 14.964C12.3145 15.5232 12.1916 16.0774 11.942 16.578C11.7117 17.022 11.3776 17.4038 10.968 17.691C10.5434 17.9864 10.0692 18.2032 9.568 18.331C9.04477 18.4684 8.50598 18.5377 7.965 18.537L7.97 18.536H2ZM4.71 16.443H7.6C7.85541 16.4458 8.11033 16.4199 8.36 16.366C8.58857 16.3219 8.80611 16.2328 9 16.104C9.18672 15.9812 9.33834 15.812 9.44 15.613C9.5579 15.3634 9.61349 15.0888 9.602 14.813C9.65047 14.3011 9.45215 13.7968 9.068 13.455C8.65353 13.1697 8.15651 13.0291 7.654 13.055L4.71 13.053V16.443ZM4.71 11.203H7.452C7.87616 11.2197 8.29433 11.0987 8.644 10.858C8.97362 10.5843 9.14719 10.1657 9.108 9.73901C9.11645 9.49409 9.06423 9.25088 8.956 9.03101C8.85824 8.85327 8.71413 8.70535 8.539 8.60301C8.35458 8.49364 8.15091 8.42066 7.939 8.38801C7.70824 8.34474 7.47377 8.32431 7.239 8.32701L4.71 8.32801V11.203ZM15.061 8.27201V7.05701H20.051V8.27101V8.27201H15.061Z" fill="white"/>
</g>
</svg>
