<svg width="114" height="24" viewBox="0 0 114 24" fill="none" xmlns="http://www.w3.org/2000/svg">
<g clip-path="url(#clip0_121_3254)">
<path fill-rule="evenodd" clip-rule="evenodd" d="M2.68176 24C1.79915 24 1.13154 23.7737 0.678931 23.3211C0.226311 22.8458 0 22.1782 0 21.3182V2.68174C0 1.82177 0.226311 1.16548 0.678931 0.712862C1.13154 0.237615 1.78784 -7.62939e-06 2.64781 -7.62939e-06C4.39038 -7.62939e-06 5.26167 0.89391 5.26167 2.68174V19.553H14.3593C15.8756 19.553 16.6337 20.2885 16.6337 21.7595C16.6337 23.2532 15.8756 24 14.3593 24H2.68176ZM33.5014 1.25494C33.1167 0.485824 32.3307 -7.62939e-06 31.4707 -7.62939e-06C30.6108 -7.62939e-06 29.8249 0.485824 29.4403 1.25494L22.9539 14.2276L19.7108 20.714C19.1501 21.8355 19.6046 23.1991 20.726 23.7598C21.8475 24.3206 23.2111 23.866 23.7719 22.7445L26.0808 18.1266L40.3573 23.8372C41.2323 24.1871 42.2327 23.9601 42.8708 23.2665C43.5092 22.5728 43.6524 21.557 43.2309 20.714L33.5014 1.25494ZM43.2309 20.714L41.2004 21.7293L41.2003 21.7292L43.2309 20.714ZM36.4994 17.4038L28.1184 14.0514L31.4708 7.34658L36.4994 17.4038ZM46.3074 21.5104C46.3074 23.1701 47.1042 24 48.6976 24C50.2909 24 51.0876 23.1701 51.0876 21.5104V8.76348L61.8428 22.473C62.2633 23.0041 62.6505 23.3914 63.0046 23.6349C63.3808 23.8783 63.8788 24 64.4984 24C65.1402 24 65.6492 23.7898 66.0254 23.3693C66.4016 22.9267 66.5897 22.3402 66.5897 21.61V2.45642C66.5897 0.818804 65.793 -7.62939e-06 64.1996 -7.62939e-06C62.6063 -7.62939e-06 61.8096 0.818804 61.8096 2.45642V15.2033L51.0544 1.49377C50.6339 0.962649 50.2577 0.586439 49.9258 0.365139C49.5938 0.121707 49.1402 -7.62939e-06 48.5648 -7.62939e-06C47.8787 -7.62939e-06 47.3255 0.221293 46.9049 0.663894C46.5066 1.10649 46.3074 1.74826 46.3074 2.5892V21.5104ZM73.6023 24C71.764 24 70.8449 23.0809 70.8449 21.2426V2.75744C70.8449 0.919142 71.764 -7.62939e-06 73.6023 -7.62939e-06H80.2406C84.3257 -7.62939e-06 87.4917 1.04396 89.7386 3.13191C91.9854 5.19715 93.1088 8.14751 93.1088 11.983C93.1088 15.8184 91.9854 18.7801 89.7386 20.8681C87.4917 22.956 84.3257 24 80.2406 24H73.6023ZM76.1215 19.6766H79.9342C85.0407 19.6766 87.5939 17.1121 87.5939 11.983C87.5939 6.87659 85.0407 4.3234 79.9342 4.3234H76.1215V19.6766ZM97.3642 21.2426C97.3642 23.0809 98.2832 24 100.122 24H112.003C113.387 24 114.08 23.3078 114.08 21.9234C114.08 20.5617 113.387 19.8809 112.003 19.8809H102.403V13.8894H111.22C112.627 13.8894 113.331 13.1972 113.331 11.8128C113.331 10.4284 112.627 9.73616 111.22 9.73616H102.403V4.11914H112.003C113.387 4.11914 114.08 3.42694 114.08 2.04254C114.08 0.680843 113.387 -7.62939e-06 112.003 -7.62939e-06H100.122C98.2832 -7.62939e-06 97.3642 0.919142 97.3642 2.75744V21.2426Z" fill="#F2F2F3"/>
</g>
<defs>
<clipPath id="clip0_121_3254">
<rect width="114" height="24" fill="white"/>
</clipPath>
</defs>
</svg>
