<svg width="24" height="25" viewBox="0 0 24 25" fill="none" xmlns="http://www.w3.org/2000/svg">
<mask id="mask0_121_3306" style="mask-type:alpha" maskUnits="userSpaceOnUse" x="0" y="0" width="24" height="25">
<rect y="0.5" width="24" height="24" fill="white"/>
</mask>
<g mask="url(#mask0_121_3306)">
<path fill-rule="evenodd" clip-rule="evenodd" d="M9 21.5V9.5H13V11.5C13.8526 10.4153 15.1456 9.76857 16.525 9.737C19.0056 9.75077 21.0072 11.7694 21 14.25V21.5H17V14.75C16.84 13.6326 15.8818 12.8036 14.753 12.806C14.2593 12.8216 13.7932 13.0378 13.4624 13.4046C13.1316 13.7715 12.9646 14.2573 13 14.75V21.5H9ZM3 21.5V9.5H7V21.5H3ZM3 5.5C3 4.39543 3.89543 3.5 5 3.5C6.10457 3.5 7 4.39543 7 5.5C7 6.03043 6.78929 6.53914 6.41421 6.91421C6.03914 7.28929 5.53043 7.5 5 7.5C3.89543 7.5 3 6.60457 3 5.5Z" fill="white"/>
</g>
</svg>
