<svg width="24" height="25" viewBox="0 0 24 25" fill="none" xmlns="http://www.w3.org/2000/svg">
<mask id="mask0_121_3302" style="mask-type:alpha" maskUnits="userSpaceOnUse" x="0" y="0" width="24" height="25">
<rect y="0.5" width="24" height="24" fill="white"/>
</mask>
<g mask="url(#mask0_121_3302)">
<path d="M10.439 22.381V15.392H7.90195V12.502H10.442V10.302C10.3284 9.25958 10.6845 8.22064 11.4136 7.46698C12.1427 6.71332 13.1693 6.32306 14.215 6.40204C14.9655 6.41417 15.7141 6.48101 16.455 6.60205V9.06104H15.191C14.7558 9.00405 14.3183 9.14777 14.0017 9.45171C13.6851 9.75566 13.5237 10.1869 13.563 10.624V12.502H16.334L15.891 15.393H13.563V22.381C18.8174 21.5506 22.502 16.7518 21.9475 11.4611C21.3929 6.17041 16.7932 2.23997 11.4808 2.51722C6.16831 2.79447 2.0028 7.18235 2.00195 12.502C2.00312 17.4214 5.58036 21.6101 10.439 22.381Z" fill="white"/>
</g>
</svg>
